<?xml version="1.0" standalone="no"?>
<!DOCTYPE svg PUBLIC "-//W3C//DTD SVG 20010904//EN"
 "http://www.w3.org/TR/2001/REC-SVG-20010904/DTD/svg10.dtd">
<svg version="1.0" xmlns="http://www.w3.org/2000/svg"
 width="522.000000pt" height="522.000000pt" viewBox="0 0 522.000000 522.000000"
 preserveAspectRatio="xMidYMid meet">
<metadata>
Created by potrace 1.11, written by Peter Selinger 2001-2013
</metadata>
<g transform="translate(0.000000,522.000000) scale(0.100000,-0.100000)"
fill="#000000" stroke="none">
<path d="M1855 4659 c-25 -20 -32 -42 -40 -128 -3 -41 -10 -57 -27 -70 -60
-42 -144 -140 -178 -207 -14 -27 -27 -51 -30 -54 -8 -8 -12 -31 -15 -82 -2
-26 -5 -50 -8 -55 -8 -13 -27 -124 -27 -161 0 -33 -27 -92 -42 -92 -4 0 -26
-18 -50 -40 -24 -22 -46 -40 -50 -40 -5 0 -8 -5 -8 -10 0 -6 -9 -20 -20 -32
-10 -12 -17 -26 -13 -31 3 -6 1 -7 -5 -3 -7 4 -12 3 -12 -1 0 -5 -11 -21 -25
-36 -14 -15 -22 -27 -18 -27 4 0 2 -4 -6 -9 -22 -14 -21 -67 1 -82 10 -8 18
-21 18 -31 0 -10 4 -18 9 -18 5 0 13 -9 16 -20 4 -11 10 -18 15 -15 5 3 10 2
12 -2 1 -5 18 -16 36 -25 18 -10 30 -13 26 -7 -3 6 5 3 20 -6 18 -12 54 -18
123 -21 122 -5 123 -6 117 -16 -3 -4 -1 -8 4 -8 18 0 36 -64 34 -124 -5 -141
-8 -172 -15 -183 -5 -7 -5 -13 0 -13 8 0 8 -178 -1 -534 -4 -157 -2 -214 7
-225 10 -12 9 -13 -2 -7 -10 6 -12 4 -7 -10 11 -34 23 -110 20 -127 -1 -9 1
-17 5 -17 9 0 11 -73 11 -305 0 -206 -2 -240 -13 -251 -4 -4 -2 -13 4 -21 8
-9 8 -17 1 -25 -5 -7 -8 -22 -6 -34 3 -17 -8 -27 -49 -50 -29 -16 -55 -28 -59
-26 -5 1 -8 -2 -8 -7 0 -7 -11 -12 -60 -26 -19 -5 -71 -15 -101 -19 -20 -3
-49 -10 -64 -16 -15 -6 -30 -8 -33 -6 -2 3 -14 -1 -26 -9 -11 -8 -28 -15 -38
-15 -10 0 -18 -5 -18 -11 0 -5 -4 -7 -10 -4 -5 3 -20 -1 -33 -10 -13 -8 -27
-12 -30 -8 -4 3 -7 1 -7 -5 0 -7 -5 -12 -11 -12 -16 0 -82 -32 -97 -47 -8 -7
-17 -11 -21 -8 -5 2 -14 -7 -21 -20 -7 -14 -17 -25 -20 -25 -4 0 -6 -20 -5
-45 1 -31 8 -50 21 -60 23 -18 17 -17 139 -19 93 -2 141 6 156 27 3 5 9 8 13
7 13 -3 76 24 76 33 0 4 4 6 8 3 5 -3 32 1 60 8 28 8 53 11 56 8 3 -3 6 -1 6
5 0 5 7 10 15 11 8 1 22 3 30 4 8 1 15 6 15 11 0 6 2 8 6 5 3 -3 26 5 51 17
67 35 75 28 75 -65 0 -16 -1 -32 -2 -35 -1 -3 -3 -15 -3 -27 -1 -13 -5 -26
-10 -29 -4 -3 -9 -13 -11 -22 -2 -15 -45 -66 -79 -94 -20 -16 -105 -44 -147
-48 -19 -2 -35 -4 -35 -5 0 -1 -11 -3 -25 -5 -28 -4 -47 -8 -109 -25 -24 -6
-50 -9 -58 -6 -8 3 -12 2 -8 -3 3 -5 -13 -12 -35 -16 -22 -4 -40 -12 -40 -18
0 -8 -3 -7 -9 1 -7 11 -9 10 -15 -3 -4 -12 -10 -14 -23 -6 -41 23 -138 -61
-138 -120 0 -36 52 -149 68 -149 4 0 5 -4 2 -10 -3 -5 -3 -10 2 -10 17 -1 44
-29 48 -51 3 -13 9 -25 15 -27 5 -2 10 -10 10 -18 0 -9 4 -12 10 -9 5 3 10 1
10 -6 0 -7 3 -9 7 -6 3 4 12 -1 18 -10 10 -14 27 -17 81 -16 70 1 209 10 209
13 0 1 9 3 20 5 21 4 57 12 65 15 3 1 10 1 15 0 6 -1 7 1 3 5 -6 7 67 89 74
83 4 -3 52 43 56 54 4 10 72 77 78 77 3 0 15 10 26 23 11 13 24 22 29 21 5 -2
9 1 9 6 0 4 11 21 25 37 13 16 30 36 37 44 64 77 84 95 107 96 14 0 31 -3 36
-7 9 -6 33 -12 93 -24 13 -2 89 -5 170 -6 80 0 157 -5 170 -10 15 -6 21 -5 17
1 -4 6 2 7 17 1 13 -4 35 -5 50 0 16 4 28 4 28 0 0 -6 45 -6 60 -1 3 1 10 1
15 0 6 -1 28 -4 50 -6 92 -7 133 -19 134 -36 1 -5 1 -9 2 -10 0 -2 3 -34 5
-73 2 -38 5 -90 7 -113 1 -24 0 -45 -3 -47 -3 -2 -7 -18 -8 -36 -1 -18 -6 -37
-11 -43 -5 -6 -12 -22 -16 -36 -4 -14 -18 -47 -31 -75 -25 -54 -94 -242 -94
-256 0 -11 550 -12 566 -1 6 4 10 15 8 25 -1 9 1 17 5 17 10 0 8 51 -2 68 -5
7 -11 52 -14 100 -4 53 -12 99 -23 119 -11 20 -16 50 -15 75 2 24 4 43 5 43 3
0 11 62 13 103 1 23 5 42 9 42 4 0 8 6 8 13 0 7 9 19 20 27 11 8 20 20 20 28
0 8 5 10 13 6 6 -4 9 -4 5 1 -4 4 -2 15 5 23 10 13 9 14 -3 7 -8 -4 1 8 20 27
19 19 37 34 39 32 2 -2 11 5 19 17 11 16 17 17 28 8 9 -7 14 -8 14 -1 0 6 9 9
20 7 11 -2 20 1 20 7 0 5 7 8 15 4 8 -3 15 0 15 6 0 6 3 8 7 5 3 -4 13 -1 21
6 13 9 14 9 8 0 -5 -9 -2 -11 8 -7 9 3 13 11 10 16 -4 6 3 5 15 -1 16 -9 21
-9 21 1 0 7 26 38 58 68 55 54 109 87 154 95 12 3 24 8 27 13 3 5 14 8 24 6 9
-1 15 2 11 7 -3 5 5 9 16 9 17 0 21 4 16 17 -4 10 -4 14 0 10 4 -4 14 -1 22 6
13 9 14 9 8 0 -5 -9 -2 -11 8 -7 8 3 13 11 10 18 -3 9 7 16 27 20 18 3 30 9
26 12 -3 3 4 15 14 27 24 26 27 30 109 131 128 156 200 234 257 277 108 81
112 91 118 262 2 51 7 103 11 117 3 14 9 74 11 135 3 60 9 119 13 130 5 13 1
34 -13 60 -13 26 -21 62 -22 100 -1 49 -10 77 -47 155 -25 52 -56 127 -68 165
-13 39 -32 90 -43 115 -11 25 -21 47 -22 50 -1 3 -5 12 -8 20 -3 8 -14 42 -23
75 -16 59 -37 107 -55 129 -40 48 -60 64 -102 80 -26 10 -60 31 -75 47 -62 68
-136 139 -143 139 -5 0 -22 14 -39 30 -17 17 -28 30 -25 30 3 0 -1 10 -9 22
-10 14 -16 44 -16 77 0 86 -14 110 -95 164 -39 26 -87 66 -106 88 -19 23 -46
53 -60 67 -39 40 -79 102 -79 123 0 11 -4 19 -10 19 -5 0 -10 11 -10 24 0 14
-4 27 -9 31 -5 3 -22 30 -37 60 -16 30 -31 55 -35 55 -4 0 -10 15 -13 34 -4
19 -21 50 -39 70 -59 64 -73 82 -93 115 -11 18 -39 43 -64 56 -49 26 -119 75
-105 75 14 0 -48 49 -90 71 -31 16 -62 22 -145 24 -58 2 -123 9 -145 15 -59
16 -71 18 -175 25 -52 4 -112 9 -135 12 -37 6 -176 7 -285 3 -25 -1 -46 3 -48
9 -7 20 -80 51 -127 55 -34 2 -52 -2 -70 -15z"/>
</g>
</svg>
